<svg width="1920" height="160" viewBox="0 0 1920 160" fill="none" xmlns="http://www.w3.org/2000/svg">
<rect width="1920" height="160" fill="#111827"/>
<path d="M403.898 41.8438C403.898 40.0312 405.359 38.5703 407.18 38.5781C408.742 38.5703 410.055 39.6797 410.273 41.1406H408.914C408.766 40.3984 408.016 39.8672 407.18 39.8594C406.078 39.8672 405.195 40.75 405.195 41.8438C405.195 42.9375 406.078 43.8203 407.18 43.8281C408.016 43.8203 408.656 43.2891 408.805 42.5469H410.148C409.945 44.0078 408.742 45.1094 407.18 45.1094C405.359 45.1094 403.898 43.6562 403.898 41.8438ZM401.289 41.8438C401.297 38.6172 403.914 36.0078 407.117 36.0156C410.352 36.0078 412.938 38.6172 412.945 41.8438C412.961 45.0547 410.352 47.6797 407.117 47.6719C403.914 47.6797 401.273 45.0547 401.289 41.8438ZM402.586 41.8438C402.578 44.3281 404.617 46.375 407.117 46.375C409.625 46.375 411.656 44.3359 411.648 41.8438C411.641 39.3359 409.617 37.3125 407.117 37.3125C404.633 37.3125 402.602 39.3438 402.586 41.8438ZM418.305 47.6719C415.898 47.6797 414.43 45.8438 414.43 43.2969C414.43 40.7188 415.969 38.9062 418.273 38.9062C420.078 38.9062 421.438 39.9766 421.648 41.5781H420.305C420.109 40.8047 419.438 40.0938 418.305 40.0938C416.789 40.0938 415.781 41.3438 415.773 43.25C415.781 45.2109 416.766 46.4688 418.305 46.4688C419.305 46.4688 420.07 45.9297 420.305 45H421.648C421.438 46.5156 420.188 47.6797 418.305 47.6719ZM426.773 47.6719C424.461 47.6797 422.898 45.9297 422.898 43.2969C422.898 40.6484 424.461 38.9062 426.773 38.9062C429.078 38.9062 430.625 40.6484 430.617 43.2969C430.625 45.9297 429.078 47.6797 426.773 47.6719ZM424.242 43.2969C424.25 44.9922 425.047 46.4844 426.773 46.4844C428.484 46.4844 429.273 44.9922 429.273 43.2969C429.273 41.6094 428.484 40.0938 426.773 40.0938C425.047 40.0938 424.25 41.6094 424.242 43.2969ZM435.586 47.6719C433.469 47.6797 431.977 45.9766 431.977 43.2812C431.977 40.5938 433.469 38.9062 435.602 38.9062C437.25 38.9062 437.766 39.9062 438.055 40.3594H438.148V36.1875H439.508V47.5H438.195V46.2031H438.055C437.758 46.6719 437.203 47.6797 435.586 47.6719ZM433.336 43.25C433.336 45.0547 434.164 46.4688 435.773 46.4688C437.328 46.4688 438.188 45.1562 438.195 43.25C438.188 41.3672 437.352 40.1094 435.773 40.1094C434.141 40.1094 433.336 41.4766 433.336 43.25ZM445.398 47.6719C442.945 47.6797 441.43 45.9297 441.43 43.3281C441.43 40.7188 442.969 38.9062 445.273 38.9062C447.055 38.9062 448.938 40 448.93 43.1406V43.7031H442.773C442.844 45.5 443.891 46.4844 445.398 46.4844C446.414 46.4844 447.055 46.0391 447.367 45.5156H448.805C448.406 46.8047 447.148 47.6797 445.398 47.6719ZM442.781 42.5625H447.57C447.562 41.1484 446.672 40.0938 445.273 40.0938C443.805 40.0938 442.875 41.25 442.781 42.5625ZM450.68 47.5V39.0156H452.023V47.5H450.68ZM450.414 36.7188C450.406 36.2188 450.836 35.8203 451.352 35.8281C451.867 35.8203 452.297 36.2188 452.305 36.7188C452.297 37.2109 451.867 37.6094 451.352 37.6094C450.836 37.6094 450.406 37.2109 450.414 36.7188ZM457.867 39.0156V40.1406H456.086V45.0625C456.078 46.1484 456.625 46.3281 457.195 46.3281C457.438 46.3281 457.797 46.3047 457.992 46.2969V47.5469C457.781 47.5781 457.453 47.6094 457.055 47.6094C455.922 47.6094 454.734 46.9062 454.727 45.4062V40.1406H453.445V39.0156H454.727V36.9844H456.086V39.0156H457.867ZM468.477 41.2344V42.4688H463.523V41.2344H468.477ZM474.539 47.5L474.523 46.4688L478.383 42.4062C479.719 40.9844 480.359 40.2188 480.367 39.1719C480.359 38.0078 479.391 37.2578 478.117 37.25C476.766 37.2578 475.922 38.1094 475.914 39.375H474.586C474.57 37.375 476.117 36.0312 478.164 36.0312C480.219 36.0312 481.672 37.4141 481.68 39.1719C481.672 40.4375 481.086 41.4219 479.086 43.4844L476.492 46.1562V46.25H481.883V47.5H474.539ZM487.633 47.6562C485.125 47.6562 483.672 45.5469 483.68 41.8438C483.672 38.1719 485.141 36.0312 487.633 36.0312C490.117 36.0312 491.586 38.1719 491.586 41.8438C491.586 45.5469 490.141 47.6562 487.633 47.6562ZM485.039 41.8438C485.047 44.7734 485.992 46.4062 487.633 46.4062C489.266 46.4062 490.219 44.7734 490.211 41.8438C490.219 38.9141 489.258 37.2578 487.633 37.25C486.008 37.2578 485.047 38.9141 485.039 41.8438ZM493.461 47.5L493.445 46.4688L497.305 42.4062C498.641 40.9844 499.281 40.2188 499.289 39.1719C499.281 38.0078 498.312 37.2578 497.039 37.25C495.688 37.2578 494.844 38.1094 494.836 39.375H493.508C493.492 37.375 495.039 36.0312 497.086 36.0312C499.141 36.0312 500.594 37.4141 500.602 39.1719C500.594 40.4375 500.008 41.4219 498.008 43.4844L495.414 46.1562V46.25H500.805V47.5H493.461ZM502.32 45.1875V44.0312L507.414 36.1875H509.148V43.9531H510.727V45.1875H509.148V47.5H507.805V45.1875H502.32ZM503.836 43.9531H507.805V37.9688H507.664L503.836 43.8594V43.9531Z" fill="#9CA3AF"/>
<path d="M880.234 47.5V36.1875H884.078C886.727 36.1875 887.938 37.7656 887.938 39.7812C887.938 41.7891 886.727 43.3906 884.094 43.3906H881.641V47.5H880.234ZM881.641 42.1406H884.031C885.836 42.1406 886.539 41.125 886.547 39.7812C886.539 38.4297 885.836 37.4375 884.016 37.4375H881.641V42.1406ZM889.734 47.5V39.0156H891.031V40.3125H891.125C891.43 39.4531 892.312 38.8828 893.312 38.875C893.516 38.8828 893.859 38.8906 894.016 38.9062V40.2656C893.914 40.2422 893.555 40.1719 893.203 40.1719C891.984 40.1719 891.078 41.0156 891.078 42.1562V47.5H889.734ZM895.328 47.5V39.0156H896.672V47.5H895.328ZM895.062 36.7188C895.055 36.2188 895.484 35.8203 896 35.8281C896.516 35.8203 896.945 36.2188 896.953 36.7188C896.945 37.2109 896.516 37.6094 896 37.6094C895.484 37.6094 895.055 37.2109 895.062 36.7188ZM905.797 39.0156L902.656 47.5H901.266L898.141 39.0156H899.609L901.922 45.75H902.016L904.328 39.0156H905.797ZM906.609 45.0938C906.609 43.1484 908.328 42.7031 909.797 42.5938C910.344 42.5547 911.711 42.4766 912.094 42.4688V41.7812C912.094 40.7031 911.453 40.0781 910.172 40.0781C909.102 40.0781 908.453 40.5703 908.266 41.2188H906.859C907.031 39.8516 908.359 38.9062 910.234 38.9062C911.344 38.9062 913.43 39.2344 913.422 41.9062V47.5H912.094V46.3438H912.031C911.75 46.9141 910.977 47.6953 909.5 47.7031C907.891 47.6953 906.609 46.75 906.609 45.0938ZM907.953 45.1562C907.961 46.0547 908.703 46.5078 909.734 46.5C911.25 46.5078 912.094 45.4922 912.094 44.4219V43.5703C911.695 43.5938 910.359 43.6953 909.953 43.7188C908.734 43.7969 907.961 44.2266 907.953 45.1562ZM919.047 47.6719C916.641 47.6797 915.172 45.8438 915.172 43.2969C915.172 40.7188 916.711 38.9062 919.016 38.9062C920.82 38.9062 922.18 39.9766 922.391 41.5781H921.047C920.852 40.8047 920.18 40.0938 919.047 40.0938C917.531 40.0938 916.523 41.3438 916.516 43.25C916.523 45.2109 917.508 46.4688 919.047 46.4688C920.047 46.4688 920.812 45.9297 921.047 45H922.391C922.18 46.5156 920.93 47.6797 919.047 47.6719ZM924.906 50.6875C924.617 50.6797 924.328 50.6719 924.156 50.6562V49.4531C924.297 49.4688 924.602 49.4766 924.812 49.4844C925.359 49.4766 925.82 49.4453 926.266 48.2031L926.516 47.5625L923.375 39.0156H924.844L927.156 45.75H927.25L929.562 39.0156H931.031L927.438 48.7188C926.938 50.0547 926.109 50.6797 924.906 50.6875ZM936.703 47.5V36.1875H940.547C943.195 36.1875 944.406 37.7656 944.406 39.7812C944.406 41.7891 943.195 43.3906 940.562 43.3906H938.109V47.5H936.703ZM938.109 42.1406H940.5C942.305 42.1406 943.008 41.125 943.016 39.7812C943.008 38.4297 942.305 37.4375 940.484 37.4375H938.109V42.1406ZM949.578 47.6719C947.266 47.6797 945.703 45.9297 945.703 43.2969C945.703 40.6484 947.266 38.9062 949.578 38.9062C951.883 38.9062 953.43 40.6484 953.422 43.2969C953.43 45.9297 951.883 47.6797 949.578 47.6719ZM947.047 43.2969C947.055 44.9922 947.852 46.4844 949.578 46.4844C951.289 46.4844 952.078 44.9922 952.078 43.2969C952.078 41.6094 951.289 40.0938 949.578 40.0938C947.852 40.0938 947.055 41.6094 947.047 43.2969ZM956.531 36.1875V47.5H955.188V36.1875H956.531ZM958.672 47.5V39.0156H960.016V47.5H958.672ZM958.406 36.7188C958.398 36.2188 958.828 35.8203 959.344 35.8281C959.859 35.8203 960.289 36.2188 960.297 36.7188C960.289 37.2109 959.859 37.6094 959.344 37.6094C958.828 37.6094 958.398 37.2109 958.406 36.7188ZM965.625 47.6719C963.219 47.6797 961.75 45.8438 961.75 43.2969C961.75 40.7188 963.289 38.9062 965.594 38.9062C967.398 38.9062 968.758 39.9766 968.969 41.5781H967.625C967.43 40.8047 966.758 40.0938 965.625 40.0938C964.109 40.0938 963.102 41.3438 963.094 43.25C963.102 45.2109 964.086 46.4688 965.625 46.4688C966.625 46.4688 967.391 45.9297 967.625 45H968.969C968.758 46.5156 967.508 47.6797 965.625 47.6719ZM971.484 50.6875C971.195 50.6797 970.906 50.6719 970.734 50.6562V49.4531C970.875 49.4688 971.18 49.4766 971.391 49.4844C971.938 49.4766 972.398 49.4453 972.844 48.2031L973.094 47.5625L969.953 39.0156H971.422L973.734 45.75H973.828L976.141 39.0156H977.609L974.016 48.7188C973.516 50.0547 972.688 50.6797 971.484 50.6875Z" fill="#E5E7EB"/>
<path d="M1009.8 47.5V36.1875H1016.61V37.4375H1011.2V41.2188H1016.09V42.4531H1011.2V47.5H1009.8ZM1017.78 47.5H1016.31L1020.45 36.1875H1021.94L1026.08 47.5H1024.59L1023.46 44.3125H1018.91L1017.78 47.5ZM1019.34 43.0781H1023.03L1021.23 38.0156H1021.14L1019.34 43.0781ZM1031.17 43.9531H1032.7L1033.9 45.5156C1034.74 44.7734 1035.27 43.5312 1035.28 41.8438C1035.27 38.9219 1033.69 37.3438 1031.64 37.3438C1029.59 37.3438 1028.01 38.9219 1028 41.8438C1028.01 44.7578 1029.59 46.3359 1031.64 46.3438C1032.06 46.3438 1032.47 46.2734 1032.84 46.1406L1031.17 43.9531ZM1026.64 41.8438C1026.63 38.2656 1028.73 36.0312 1031.64 36.0312C1034.54 36.0312 1036.65 38.2656 1036.64 41.8438C1036.65 43.9609 1035.91 45.6016 1034.71 46.5938L1036.19 48.5625H1034.66L1033.67 47.2422C1033.06 47.5156 1032.38 47.6562 1031.64 47.6562C1028.73 47.6562 1026.63 45.4219 1026.64 41.8438Z" fill="#E5E7EB"/>
<path fill-rule="evenodd" clip-rule="evenodd" d="M1405 41.9033C1405 46.3778 1408.25 50.0985 1412.5 50.853V44.3528H1410.25V41.853H1412.5V39.8528C1412.5 37.6028 1413.95 36.3533 1416 36.3533C1416.65 36.3533 1417.35 36.453 1418 36.5528V38.853H1416.85C1415.75 38.853 1415.5 39.4028 1415.5 40.1033V41.853H1417.9L1417.5 44.3528H1415.5V50.853C1419.75 50.0985 1423 46.3785 1423 41.9033C1423 36.9255 1418.95 32.853 1414 32.853C1409.05 32.853 1405 36.9255 1405 41.9033Z" fill="white"/>
<path d="M1455.7 36.1141C1455.01 36.4225 1454.26 36.6308 1453.47 36.725C1454.28 36.2398 1454.89 35.4762 1455.18 34.5766C1454.42 35.0291 1453.58 35.3476 1452.72 35.5183C1452.13 34.894 1451.36 34.4803 1450.51 34.3412C1449.67 34.2022 1448.8 34.3456 1448.05 34.7494C1447.29 35.1531 1446.69 35.7945 1446.34 36.5739C1445.99 37.3534 1445.91 38.2273 1446.1 39.06C1444.56 38.9825 1443.05 38.5813 1441.67 37.8824C1440.29 37.1835 1439.07 36.2026 1438.1 35.0033C1437.77 35.5783 1437.57 36.245 1437.57 36.955C1437.57 37.5941 1437.73 38.2235 1438.03 38.7873C1438.33 39.351 1438.77 39.8317 1439.3 40.1866C1438.68 40.167 1438.08 40.0005 1437.54 39.7008V39.7508C1437.54 40.6473 1437.85 41.5161 1438.42 42.21C1438.99 42.9038 1439.78 43.3799 1440.66 43.5575C1440.08 43.7122 1439.48 43.735 1438.9 43.6242C1439.15 44.3955 1439.63 45.07 1440.28 45.5533C1440.93 46.0365 1441.72 46.3043 1442.53 46.3192C1441.15 47.3987 1439.46 47.9842 1437.71 47.9816C1437.4 47.9817 1437.09 47.9636 1436.78 47.9275C1438.56 49.0685 1440.62 49.674 1442.73 49.6716C1449.87 49.6716 1453.78 43.7566 1453.78 38.6266C1453.78 38.46 1453.77 38.2916 1453.77 38.125C1454.52 37.5758 1455.18 36.8957 1455.7 36.1166L1455.7 36.1141Z" fill="white"/>
<g clip-path="url(#clip0_37841_16984)">
<path d="M1487.58 37.4224C1487.47 37.0184 1487.25 36.6527 1486.94 36.3641C1486.63 36.0666 1486.25 35.8538 1485.83 35.7457C1484.26 35.3332 1477.99 35.3332 1477.99 35.3332C1475.38 35.3035 1472.77 35.4343 1470.17 35.7249C1469.75 35.8409 1469.37 36.0585 1469.05 36.3582C1468.75 36.6549 1468.52 37.0207 1468.41 37.4216C1468.13 38.9314 1467.99 40.4644 1468 41.9999C1467.99 43.5341 1468.13 45.0666 1468.41 46.5782C1468.52 46.9774 1468.74 47.3416 1469.05 47.6357C1469.36 47.9299 1469.75 48.1424 1470.17 48.2549C1471.76 48.6666 1477.99 48.6666 1477.99 48.6666C1480.61 48.6963 1483.23 48.5655 1485.83 48.2749C1486.25 48.1669 1486.63 47.9541 1486.94 47.6566C1487.25 47.368 1487.47 47.0022 1487.58 46.5982C1487.87 45.089 1488.01 43.5554 1488 42.0191C1488.02 40.4762 1487.88 38.9354 1487.58 37.4216V37.4224ZM1476 44.8532V39.1474L1481.22 42.0007L1476 44.8532Z" fill="white"/>
</g>
<path d="M1509.5 39.5185C1507.94 39.5185 1506.66 40.7922 1506.66 42.353C1506.66 43.9138 1507.94 45.1876 1509.5 45.1876C1511.06 45.1876 1512.33 43.9138 1512.33 42.353C1512.33 40.7922 1511.06 39.5185 1509.5 39.5185ZM1518 42.353C1518 41.1792 1518.01 40.0161 1517.94 38.8444C1517.88 37.4835 1517.57 36.2757 1516.57 35.2805C1515.58 34.2832 1514.37 33.9749 1513.01 33.9089C1511.83 33.843 1510.67 33.8537 1509.5 33.8537C1508.33 33.8537 1507.16 33.843 1505.99 33.9089C1504.63 33.9749 1503.42 34.2853 1502.43 35.2805C1501.43 36.2778 1501.12 37.4835 1501.06 38.8444C1500.99 40.0182 1501 41.1814 1501 42.353C1501 43.5247 1500.99 44.69 1501.06 45.8616C1501.12 47.2226 1501.43 48.4304 1502.43 49.4256C1503.42 50.4229 1504.63 50.7312 1505.99 50.7971C1507.17 50.863 1508.33 50.8524 1509.5 50.8524C1510.67 50.8524 1511.84 50.863 1513.01 50.7971C1514.37 50.7312 1515.58 50.4207 1516.57 49.4256C1517.57 48.4283 1517.88 47.2226 1517.94 45.8616C1518.01 44.69 1518 43.5268 1518 42.353ZM1509.5 46.7143C1507.08 46.7143 1505.14 44.7665 1505.14 42.353C1505.14 39.9395 1507.08 37.9917 1509.5 37.9917C1511.91 37.9917 1513.86 39.9395 1513.86 42.353C1513.86 44.7665 1511.91 46.7143 1509.5 46.7143ZM1514.04 38.8316C1513.47 38.8316 1513.02 38.3766 1513.02 37.8131C1513.02 37.2496 1513.47 36.7945 1514.04 36.7945C1514.6 36.7945 1515.06 37.2496 1515.06 37.8131C1515.06 37.9469 1515.03 38.0794 1514.98 38.2031C1514.93 38.3267 1514.85 38.4391 1514.76 38.5337C1514.66 38.6283 1514.55 38.7033 1514.43 38.7545C1514.3 38.8056 1514.17 38.8318 1514.04 38.8316Z" fill="white"/>
<defs>
<clipPath id="clip0_37841_16984">
<rect width="20" height="20" fill="white" transform="translate(1468 32)"/>
</clipPath>
</defs>
</svg>
